<?xml version="1.0"?>
<svg xmlns="http://www.w3.org/2000/svg" xmlns:xlink="http://www.w3.org/1999/xlink" version="1.1" id="Capa_1" x="0px" y="0px" viewBox="0 0 477.867 477.867" style="enable-background:new 0 0 477.867 477.867;" xml:space="preserve" width="512px" height="512px"><g><g>
	<g>
		<path d="M426.667,102.4h-72.004l-13.841-55.347c-1.902-7.593-8.727-12.919-16.555-12.919H153.6    c-7.828,0-14.652,5.326-16.555,12.919L123.204,102.4H51.2C22.923,102.4,0,125.323,0,153.6v238.933c0,28.277,22.923,51.2,51.2,51.2    h375.467c28.277,0,51.2-22.923,51.2-51.2V153.6C477.867,125.323,454.944,102.4,426.667,102.4z M443.733,392.533    c0,9.426-7.641,17.067-17.067,17.067H51.2c-9.426,0-17.067-7.641-17.067-17.067V153.6c0-9.426,7.641-17.067,17.067-17.067h85.333    c7.828,0,14.652-5.326,16.555-12.92l13.841-55.347h144.009l13.841,55.347c1.902,7.594,8.727,12.919,16.555,12.92h85.333    c9.426,0,17.067,7.641,17.067,17.067V392.533z" data-original="#000000" class="active-path" data-old_color="#000000" fill="#E3E9ED"/>
	</g>
</g><g>
	<g>
		<path d="M238.933,187.733c-47.128,0-85.333,38.205-85.333,85.333s38.205,85.333,85.333,85.333s85.333-38.205,85.333-85.333    C324.21,225.962,286.038,187.79,238.933,187.733z M238.933,324.267c-28.277,0-51.2-22.923-51.2-51.2s22.923-51.2,51.2-51.2    s51.2,22.923,51.2,51.2S267.21,324.267,238.933,324.267z" data-original="#000000" class="active-path" data-old_color="#000000" fill="#E3E9ED"/>
	</g>
</g></g> </svg>
